<svg width="106" height="86" viewBox="0 0 106 86" fill="none" xmlns="http://www.w3.org/2000/svg">
<path d="M95.9947 26.1487C102.403 13.9839 91.6322 5.90076 83.9302 5.72024C76.2281 5.53972 72.0562 11.5971 72.9387 15.769C73.8212 19.9409 77.3714 18.0455 77.3714 18.0455L78.5448 16.7117C79.3069 15.7189 80.7511 15.5484 81.7138 16.3507C82.6064 17.0828 82.7869 18.3765 82.125 19.3292L81.0018 20.9438C81.0018 20.9438 79.2969 23.8822 74.0018 22.5283C68.7066 21.1745 66.0691 14.8263 69.7095 8.47813C73.3499 2.12996 77.4115 0.655747 86.6379 1.06692C95.8643 1.4781 102.333 9.11997 103.456 14.4151C104.569 19.7103 105.271 26.3092 102.453 31.7748C105.973 36.7992 105.131 45.9353 99.4345 53.2763C95.8242 57.9397 99.7153 63.5457 100.879 66.8853C101.571 68.8609 101.37 71.0271 100.257 72.7922L92.6251 84.9971H82.6666C80.721 80.5744 86.9388 80.7249 86.9388 80.7249L89.5663 75.8008C90.7196 73.6346 90.3886 70.977 88.7439 69.1618L80.6708 60.2463C80.6708 60.2463 74.6937 65.9426 67.5834 70.4956C60.473 75.0486 47.0948 74.7678 47.0948 74.7678C37.2366 80.9054 27.8697 84.1547 16.2565 84.1547H1.00287C1.65474 78.7492 8.93557 79.6017 18.7737 77.0845C28.6219 74.5672 36.1133 69.5228 36.1133 69.5228L30.9486 64.3881C27.7895 64.5987 24.7909 63.0042 23.1863 60.2764L22.705 59.464C23.7379 58.0901 25.2222 55.0013 25.5632 52.4841C25.9041 49.9669 29.4543 48.1316 29.4543 48.1316L27.9199 43.2978L33.1448 45.825L33.9171 41.3723L40.0646 47.0585L49.281 52.4339C59.42 52.8952 61.8771 38.3035 72.0161 30.1602C82.1551 22.0169 95.9847 26.1688 95.9847 26.1688L95.9947 26.1487Z" fill="black" stroke="white" stroke-width="2" stroke-linecap="round" stroke-linejoin="round"/>
</svg>
